<svg xmlns="http://www.w3.org/2000/svg" viewBox="0 0 507.29 106.36"><title>Asset 1</title><g id="Layer_2" data-name="Layer 2"><g id="Layer_1-2" data-name="Layer 1"><path d="M3,25.66v0m0,3H3Zm0,0H3Z" style="fill:#fff"/><path d="M253.83,51.71h0" style="fill:#1c355e"/><path d="M492.27,22.68H3.38a3.2,3.2,0,0,0-2.5.87A3,3,0,0,0,0,25.68v.15C0,26.47.09,31.32.09,37V92c0,7.9,6.74,14.33,15,14.33h468c21.68,0,21.68,0,22.29-.28a3,3,0,0,0,1.74-2.72l.1-66.34c0-7.9-6.74-14.33-15-14.33" style="fill:#fff"/><path d="M15.12,103.35c-6.62,0-12-5.1-12-11.33V37C3.09,30.78,3,25.32,3,25.68H492.27c6.61,0,12,5.1,12,11.33l-.1,66.34s-489.07,0-489.07,0" style="fill:#db1f26"/><path d="M486,49.35a3.54,3.54,0,1,1,3.5-3.56v0a3.48,3.48,0,0,1-3.5,3.53m0-8a4.49,4.49,0,1,0,4.45,4.46A4.49,4.49,0,0,0,486,41.33" style="fill:#fff"/><path d="M486.89,45.08c0,.33-.24.52-.67.52h-.82V44.52h.81c.42,0,.68.18.68.54Zm1.25-.08v0a1.34,1.34,0,0,0-.38-1,2,2,0,0,0-1.52-.5h-2.08v4.49h1.24V46.57H486l.91,1.37h1.43l-1.07-1.57a1.39,1.39,0,0,0,.92-1.37" style="fill:#fff"/><path d="M53.39,55.88c-1.32,1.81-3.51,2.72-6.5,2.72H45V44.24h3.34a6.48,6.48,0,0,1,4.83,2A6.6,6.6,0,0,1,55,51.11a7.73,7.73,0,0,1-1.6,4.77M47.73,85.14H45V67.37h2.78A12.48,12.48,0,0,1,52,68a7,7,0,0,1,3.11,2.39,9.22,9.22,0,0,1,1.87,5.7A9.46,9.46,0,0,1,55,81.87a8.59,8.59,0,0,1-7.27,3.27M62.9,64.07a26.75,26.75,0,0,0-4.71-1.66,22.48,22.48,0,0,0,2.72-1.17,12.75,12.75,0,0,0,5.59-5.31,13.34,13.34,0,0,0,1.61-6.29,11.34,11.34,0,0,0-1.84-6.22,13.37,13.37,0,0,0-4.82-4.53c-3-1.67-7.92-2.51-14.66-2.51H32l0,46.24c0,3.49,0,10.92,0,10.92H43.75c6.44,0,11.11-.37,13.89-1.08A17.61,17.61,0,0,0,66,88.07a16.18,16.18,0,0,0,2.94-18.13,12.52,12.52,0,0,0-6-5.87" style="fill:#fff"/><path d="M382.34,55.88c-1.32,1.81-3.5,2.72-6.49,2.72h-1.94V44.24h3.34a6.5,6.5,0,0,1,4.83,2,6.64,6.64,0,0,1,1.86,4.83,7.67,7.67,0,0,1-1.6,4.77m-5.65,29.26h-2.78V67.37h2.78a12.48,12.48,0,0,1,4.23.59A7,7,0,0,1,384,70.35a9.21,9.21,0,0,1,1.86,5.7A9.51,9.51,0,0,1,384,81.87a8.6,8.6,0,0,1-7.27,3.27m15.17-21.07a26.91,26.91,0,0,0-4.72-1.66,22.74,22.74,0,0,0,2.73-1.17,12.75,12.75,0,0,0,5.59-5.31,13.34,13.34,0,0,0,1.61-6.29,11.34,11.34,0,0,0-1.84-6.22,13.4,13.4,0,0,0-4.83-4.53c-3-1.67-7.91-2.51-14.66-2.51H360.92l0,46.24c0,3.49,0,10.92,0,10.92H372.7c6.44,0,11.12-.37,13.9-1.08a17.66,17.66,0,0,0,8.31-4.39,16.15,16.15,0,0,0,2.93-18.13,12.49,12.49,0,0,0-6-5.87" style="fill:#fff"/><path d="M103.84,49.71V65.47c0,6.72-.19,10.86-.56,12.29a5.16,5.16,0,0,1-1.62,2.59,8.2,8.2,0,0,1-5.6,1.78,9.36,9.36,0,0,1-5.23-1.38,5,5,0,0,1-2-2.8,23.72,23.72,0,0,1-.43-5.56V42.24H76.22l0,30.54c0,5.42,1.21,9.4,3.59,11.84,2.92,2.95,8,4.44,15,4.44,5.29,0,9.37-1.23,12.13-3.65a11.85,11.85,0,0,0,3.3-4.51c.85-2.06,1.26-5.59,1.26-10.8V42.24h-7.75s0,5.69.06,7.47" style="fill:#fff"/><path d="M166.93,42.17H152.47L144,68.28l-9.73-25.81-.11-.3h-14l.11,31.74c0,4,0,14.36,0,14.36h7.92L128,58.51s9,25.36,10.26,29.43l.1.33h6.56l10-29.53-.51,29.53h12.45Z" style="fill:#fff"/><path d="M197.38,58.05c-1.28,1.46-3.4,2.2-6.3,2.2H189.2V48.67h3.24a7,7,0,0,1,4.68,1.65,4.88,4.88,0,0,1,1.81,3.89,5.57,5.57,0,0,1-1.55,3.84m-5.49,23.58H189.2V67.31h2.69a14.22,14.22,0,0,1,4.11.48,7,7,0,0,1,3,1.92,6.67,6.67,0,0,1,1.81,4.6A6.88,6.88,0,0,1,199,79c-1.6,1.75-4,2.63-7.06,2.63m14.72-17A31.68,31.68,0,0,0,202,63.31a26.55,26.55,0,0,0,2.64-.93,11.69,11.69,0,0,0,5.42-4.28A9.38,9.38,0,0,0,211.66,53a8.08,8.08,0,0,0-1.78-5,12.33,12.33,0,0,0-4.68-3.64c-2.89-1.35-7.68-2-14.22-2H176.6s0,7,0,11.24v26c0,2.82,0,8.8,0,8.8H188a73.54,73.54,0,0,0,13.48-.87A18.39,18.39,0,0,0,209.57,84a11.35,11.35,0,0,0,4.37-9.09,10.72,10.72,0,0,0-1.52-5.52,11.39,11.39,0,0,0-5.81-4.73" style="fill:#fff"/><path d="M244.39,81H233.52V42.11H220.74s0,8.72.12,14.19l-.12,32h30.81V80.93l-7.16,0" style="fill:#fff"/><path d="M271.13,80.94v-13h13.52L284.56,61s-4.23,0-7.41.07h-6V49.67h8l10.73,0V42.17H258.37V88.3H291V80.93Z" style="fill:#fff"/><path d="M418.64,80.94v-13h13.52L432.07,61s-4.23,0-7.41.07h-6.05V49.67h8l10.73,0V42.17H405.88V88.3H438.5V80.93Z" style="fill:#fff"/><path d="M457.69,80.94v-13h13.52l-.1-6.92s-4.22,0-7.41.07h-6.05V49.67h8l10.72,0V42.17H444.92V88.3h32.62V80.93Z" style="fill:#fff"/><path d="M342.34,45.7,342,41.26l.46-.25.67-.41.06,0,.17-.11c.29-.2.56-.41.82-.63l.2-.18a7.42,7.42,0,0,0,.56-.57c.14-.17.28-.35.41-.53s.16-.24.22-.35a4.42,4.42,0,0,0,.44-.94,1.77,1.77,0,0,0,.08-.25,4.59,4.59,0,0,0,.18-1.24,5.53,5.53,0,0,0-2.61-4.49.83.83,0,0,0,.07-.13,3.61,3.61,0,0,0,.22-.48c.06-.14.1-.29.14-.41a4.23,4.23,0,0,0,.16-1.14,4.29,4.29,0,0,0-.18-1.22,4.11,4.11,0,0,0-.15-.42,5,5,0,0,0-.32-.66c-.09-.14-.18-.28-.28-.42s-.23-.29-.36-.44a4.84,4.84,0,0,0-.39-.4l-.34-.3c-.15-.13-.31-.26-.49-.39l-.25-.17a9,9,0,0,0-.92-.55v-6a6.76,6.76,0,0,0,2-2.08l.09-.16a4,4,0,0,0,.33-.78l.09-.28a4.41,4.41,0,0,0,.15-1.11,4.3,4.3,0,0,0-.16-1.15l-.1-.33a5.67,5.67,0,0,0-.32-.72c-.05-.1-.11-.19-.17-.3a5.79,5.79,0,0,0-.57-.76,3,3,0,0,0-.25-.25c-.14-.15-.29-.29-.47-.45l-.36-.28-.48-.34-.34-.23c-.24-.14-.5-.29-.77-.43a17.23,17.23,0,0,0-2.45-1,16.73,16.73,0,0,0-7-3.8,5.26,5.26,0,0,0-10,0,16.73,16.73,0,0,0-7,3.8,17.67,17.67,0,0,0-2.48,1c-.26.14-.5.28-.74.43a3.78,3.78,0,0,0-.43.28l-.39.28-.38.3-.45.43a1.88,1.88,0,0,0-.24.25,5.54,5.54,0,0,0-.58.77,2.91,2.91,0,0,0-.17.3,5,5,0,0,0-.33.74l-.09.31a4.11,4.11,0,0,0,0,2.27,1.44,1.44,0,0,0,.07.22,4.28,4.28,0,0,0,.35.84l.08.13a6.84,6.84,0,0,0,2,2.08l0,6a10.65,10.65,0,0,0-.94.57l-.24.16c-.18.13-.33.25-.48.38l-.36.31-.38.39c-.13.15-.24.3-.35.45a3.06,3.06,0,0,0-.28.42,4.35,4.35,0,0,0-.32.65,3.61,3.61,0,0,0-.16.42,4.36,4.36,0,0,0-.18,1.23,4.18,4.18,0,0,0,.16,1.14c0,.14.09.28.15.44a5,5,0,0,0,.24.52l0,.06a5.53,5.53,0,0,0-2.61,4.49,4.52,4.52,0,0,0,.18,1.23l.08.26a4.88,4.88,0,0,0,.43.93c.07.12.15.24.24.37s.26.35.39.5a6.43,6.43,0,0,0,.58.59l.19.18a11.14,11.14,0,0,0,2.18,1.44l-.37,4.4-5.86,57.69h47Z" style="fill:#fff"/><path d="M324.7,29.75c-10.51,0-19,2.76-19,6.18,0,1,.73,1.92,2,2.75,1.44-2.79,8.51-4.51,17-4.51s15.58,1.72,17,4.51c1.28-.83,2-1.76,2-2.75,0-3.42-8.52-6.18-19-6.18" style="fill:#1c355e"/><path d="M338,25.89v-9A5.64,5.64,0,0,0,340.34,15a.56.56,0,0,0,.05-.08,3.2,3.2,0,0,0,.16-.39s0-.08,0-.11a2.07,2.07,0,0,0,.07-.49,1.69,1.69,0,0,0-.08-.5.88.88,0,0,0-.05-.15,2.17,2.17,0,0,0-.15-.35.83.83,0,0,0-.09-.16,3.22,3.22,0,0,0-.33-.45c0-.05-.1-.09-.15-.14s-.2-.2-.31-.3l-.25-.2-.32-.22a3.13,3.13,0,0,0-.3-.2,7,7,0,0,0-.61-.35,15.88,15.88,0,0,0-2.62-1,14.4,14.4,0,0,0-8-3.94,2.52,2.52,0,0,0,0-.48,2.76,2.76,0,0,0-5.52,0,2.52,2.52,0,0,0,.05.48,14.4,14.4,0,0,0-8,3.94,16.12,16.12,0,0,0-2.64,1.05c-.21.11-.4.22-.59.34l-.33.21-.28.21-.27.21-.29.27-.16.17a2.66,2.66,0,0,0-.33.44.83.83,0,0,0-.09.16,2.17,2.17,0,0,0-.15.35.88.88,0,0,0-.05.15,1.69,1.69,0,0,0-.08.5,2.07,2.07,0,0,0,.07.49s0,.07,0,.11a3.2,3.2,0,0,0,.16.39.56.56,0,0,0,.05.08,5.66,5.66,0,0,0,2.3,1.94v-1h0l0,10c-2.31.93-3.69,2.11-3.69,3.39a2.29,2.29,0,0,0,.67,1.51c2.83-1.73,9.72-3.27,16.34-3.27s13.57,1.46,16.39,3.2a2.2,2.2,0,0,0,.62-1.44c0-1.28-1.38-2.46-3.67-3.39M319.74,12l0,12.1c-.87.08-1.7.19-2.5.32l0-11.93c.8-.19,1.63-.35,2.49-.49m12.39.49,0,11.93c-.8-.13-1.63-.24-2.49-.32l0-12.1c.87.13,1.71.3,2.5.49m2.35.68c.54.18,1,.38,1.52.59l0,11.5c-.49-.14-1-.27-1.52-.39Zm-21.1.6c.48-.21,1-.41,1.52-.6l0,11.69c-.53.12-1,.25-1.52.39Zm9.88,10.12,0-12.22c.48,0,1,0,1.47,0s1,0,1.44,0l0,12.22c-.49,0-1,0-1.47,0s-1,0-1.44,0" style="fill:#1c355e"/><path d="M339.84,46.08l-.52-6.25a2.24,2.24,0,0,0-1.57-2,51.53,51.53,0,0,0-26.1,0,2.24,2.24,0,0,0-1.57,2l-.52,6.25-5.83,57.34h41.94ZM317.31,56.17V50.79a2.13,2.13,0,1,1,4.21,0v5c-1.46.08-2.88.21-4.21.39m12.31,30,.08-8.34v-.91a2.41,2.41,0,1,1,4.81,0l.42,9.71c-1.67-.2-3.45-.36-5.31-.46" style="fill:#1c355e"/></g></g></svg>