<svg xmlns="http://www.w3.org/2000/svg" viewBox="0 0 507.29 103.68"><title>Asset 1</title><g id="Layer_2" data-name="Layer 2"><g id="Layer_1-2" data-name="Layer 1"><path d="M486,46.68a3.54,3.54,0,1,1,3.5-3.56v0a3.48,3.48,0,0,1-3.5,3.54m0-8a4.49,4.49,0,1,0,4.45,4.47A4.5,4.5,0,0,0,486,38.65" style="fill:#fff"/><path d="M486.9,42.41c0,.32-.25.52-.68.52h-.82V41.85h.81c.42,0,.69.17.69.53Zm1.24-.08v0a1.34,1.34,0,0,0-.38-1,2,2,0,0,0-1.52-.51h-2.08v4.49h1.24V43.9H486l.91,1.36h1.43l-1.07-1.56a1.4,1.4,0,0,0,.92-1.37" style="fill:#fff"/><path d="M53.39,53.2c-1.32,1.81-3.51,2.73-6.5,2.73H45V41.57h3.34a6.44,6.44,0,0,1,4.83,2A6.6,6.6,0,0,1,55,48.44a7.68,7.68,0,0,1-1.6,4.76M47.73,82.47H45V64.7h2.78a12.48,12.48,0,0,1,4.23.59,7,7,0,0,1,3.11,2.39,9.2,9.2,0,0,1,1.87,5.7A9.48,9.48,0,0,1,55,79.2a8.59,8.59,0,0,1-7.27,3.27M62.9,61.4a26.75,26.75,0,0,0-4.71-1.66,24.21,24.21,0,0,0,2.72-1.17,12.75,12.75,0,0,0,5.59-5.31A13.38,13.38,0,0,0,68.11,47a11.33,11.33,0,0,0-1.84-6.21,13.37,13.37,0,0,0-4.82-4.53c-3-1.67-7.92-2.51-14.66-2.51H32L32,80c0,3.49,0,10.91,0,10.91H43.75c6.44,0,11.11-.36,13.89-1.08A17.52,17.52,0,0,0,66,85.39a16.18,16.18,0,0,0,2.94-18.13,12.5,12.5,0,0,0-6-5.86" style="fill:#fff"/><path d="M382.34,53.2c-1.32,1.81-3.5,2.73-6.49,2.73h-1.94V41.57h3.34a6.46,6.46,0,0,1,4.83,2,6.64,6.64,0,0,1,1.86,4.83,7.62,7.62,0,0,1-1.6,4.76m-5.65,29.27h-2.78V64.7h2.78a12.48,12.48,0,0,1,4.23.59A7,7,0,0,1,384,67.68a9.19,9.19,0,0,1,1.86,5.7A9.53,9.53,0,0,1,384,79.2a8.6,8.6,0,0,1-7.27,3.27M391.86,61.4a26.91,26.91,0,0,0-4.72-1.66,24.5,24.5,0,0,0,2.73-1.17,12.75,12.75,0,0,0,5.59-5.31,13.38,13.38,0,0,0,1.61-6.3,11.33,11.33,0,0,0-1.84-6.21,13.4,13.4,0,0,0-4.83-4.53c-3-1.67-7.91-2.51-14.66-2.51H360.92L361,80c0,3.49,0,10.91,0,10.91H372.7c6.44,0,11.12-.36,13.9-1.08a17.57,17.57,0,0,0,8.31-4.39,16.15,16.15,0,0,0,2.93-18.13,12.48,12.48,0,0,0-6-5.86" style="fill:#fff"/><path d="M103.84,47V62.8c0,6.72-.19,10.86-.56,12.29a5.16,5.16,0,0,1-1.62,2.59,8.2,8.2,0,0,1-5.6,1.77,9.28,9.28,0,0,1-5.23-1.38,4.92,4.92,0,0,1-2-2.79,23.82,23.82,0,0,1-.43-5.57V39.57H76.22l0,30.54c0,5.42,1.21,9.4,3.59,11.84,2.92,2.94,8,4.44,15,4.44,5.29,0,9.37-1.23,12.13-3.66a11.75,11.75,0,0,0,3.3-4.5c.85-2.07,1.26-5.6,1.26-10.8V39.57h-7.75s0,5.69.06,7.47" style="fill:#fff"/><path d="M166.93,39.5H152.47L144,65.6l-9.73-25.8-.11-.3h-14l.11,31.73c0,4,0,14.36,0,14.36h7.92L128,55.84s9,25.36,10.26,29.43l.1.32h6.56l10-29.53-.51,29.53h12.45Z" style="fill:#fff"/><path d="M197.38,55.38c-1.28,1.46-3.4,2.19-6.3,2.19H189.2V46h3.24a6.9,6.9,0,0,1,4.68,1.65,4.86,4.86,0,0,1,1.81,3.89,5.57,5.57,0,0,1-1.55,3.84M191.89,79H189.2V64.64h2.69a14.63,14.63,0,0,1,4.11.47A7,7,0,0,1,199,67a6.64,6.64,0,0,1,1.81,4.59,6.92,6.92,0,0,1-1.88,4.7c-1.6,1.74-4,2.63-7.06,2.63m14.72-17A29.29,29.29,0,0,0,202,60.64a26.17,26.17,0,0,0,2.64-.94,11.62,11.62,0,0,0,5.42-4.28,9.35,9.35,0,0,0,1.56-5.07,8.08,8.08,0,0,0-1.78-5,12.26,12.26,0,0,0-4.68-3.65c-2.89-1.34-7.68-2-14.22-2H176.6s0,7.05,0,11.25v26c0,2.81,0,8.79,0,8.79H188a72.64,72.64,0,0,0,13.48-.87,18.5,18.5,0,0,0,8.06-3.53,11.37,11.37,0,0,0,4.37-9.09,10.72,10.72,0,0,0-1.52-5.52A11.39,11.39,0,0,0,206.61,62" style="fill:#fff"/><path d="M244.39,78.3H233.52V39.43H220.74s0,8.73.12,14.2l-.12,32h30.81V78.26l-7.16,0" style="fill:#fff"/><path d="M271.13,78.26v-13h13.52l-.09-6.91s-4.23,0-7.41.07h-6V47h8l10.73,0V39.5H258.37V85.63H291V78.26Z" style="fill:#fff"/><path d="M418.64,78.26v-13h13.52l-.09-6.91s-4.23,0-7.41.07h-6.05V47h8l10.73,0V39.5H405.88V85.63H438.5V78.26Z" style="fill:#fff"/><path d="M457.69,78.26v-13h13.52l-.1-6.91s-4.22,0-7.41.07h-6.05V47h8l10.72,0V39.5H444.92V85.63h32.62V78.26Z" style="fill:#fff"/><path d="M492.27,20H340.53v1.45c.33.18.64.37.92.56l.25.17c.18.13.34.26.49.39s.23.19.34.29l.13.14H492.27c6.61,0,12,5.09,12,11.32l-.1,66.35H15.12c-6.62,0-12-5.1-12-11.33v-55C3.09,28.5,3,23.34,3,23H306.74l.12-.13c.11-.11.24-.21.36-.32s.3-.25.48-.37l.24-.16c.29-.2.61-.39.93-.57V20H3.37a3.15,3.15,0,0,0-2.49.87A3,3,0,0,0,0,23v.15c0,.64.09,5.49.09,11.17v55c0,7.9,6.74,14.33,15,14.33h468c21.68,0,21.68,0,22.29-.28a3,3,0,0,0,1.74-2.72l.1-66.35c0-7.9-6.74-14.32-15-14.32" style="fill:#fff"/><path d="M324.7,27.07c-10.51,0-19,2.77-19,6.19,0,1,.73,1.92,2,2.75,1.44-2.79,8.51-4.52,17-4.52s15.58,1.73,17,4.52c1.28-.83,2-1.76,2-2.75,0-3.42-8.52-6.19-19-6.19" style="fill:#fff"/><path d="M338,23.22v-9a5.63,5.63,0,0,0,2.31-1.94l.05-.08a3.2,3.2,0,0,0,.16-.39l0-.12a2,2,0,0,0,.07-.48,1.81,1.81,0,0,0-.08-.51.88.88,0,0,0-.05-.15,2.63,2.63,0,0,0-.15-.35,1.19,1.19,0,0,0-.09-.15,3.22,3.22,0,0,0-.33-.45c0-.05-.1-.1-.15-.15l-.31-.29-.25-.2a3.62,3.62,0,0,0-.32-.22l-.3-.21c-.19-.11-.39-.23-.61-.34a15.86,15.86,0,0,0-2.62-1.05,14.46,14.46,0,0,0-8-3.93,2.61,2.61,0,0,0,0-.48,2.76,2.76,0,1,0-5.52,0,2.61,2.61,0,0,0,.05.48,14.46,14.46,0,0,0-8,3.93,17,17,0,0,0-2.64,1.06l-.59.33c-.12.07-.22.15-.33.22l-.28.21-.27.21-.29.27-.16.17a2.66,2.66,0,0,0-.33.44,1.19,1.19,0,0,0-.09.15,3.35,3.35,0,0,0-.15.35.75.75,0,0,0-.05.16,1.69,1.69,0,0,0-.08.5,2,2,0,0,0,.07.48s0,.08,0,.12a3.2,3.2,0,0,0,.16.39.56.56,0,0,1,.05.08,5.57,5.57,0,0,0,2.3,1.93v-1h0l0,10c-2.31.94-3.69,2.11-3.69,3.4a2.29,2.29,0,0,0,.67,1.51c2.83-1.74,9.72-3.28,16.34-3.28s13.57,1.47,16.39,3.21a2.2,2.2,0,0,0,.62-1.44c0-1.29-1.38-2.46-3.67-3.39M319.74,9.28l0,12.1c-.87.08-1.7.19-2.5.31l0-11.92c.8-.19,1.63-.36,2.49-.49m12.39.49,0,11.93c-.8-.13-1.63-.24-2.49-.32l0-12.1c.87.13,1.71.3,2.5.49m2.35.68c.54.18,1,.38,1.52.58l0,11.5c-.49-.14-1-.27-1.52-.39Zm-21.1.59c.48-.21,1-.4,1.52-.59l0,11.69c-.53.12-1,.25-1.52.39Zm9.88,10.12,0-12.22q.72,0,1.47,0t1.44,0l0,12.22-1.47,0-1.44,0" style="fill:#fff"/><path d="M339.84,43.41l-.52-6.26a2.23,2.23,0,0,0-1.57-2,51.23,51.23,0,0,0-26.1,0,2.23,2.23,0,0,0-1.57,2l-.52,6.26-5.83,57.34h41.94ZM317.31,53.5V48.11a2.12,2.12,0,1,1,4.21,0v5c-1.46.08-2.88.21-4.21.4m12.31,30,.08-8.34v-.92a2.41,2.41,0,1,1,4.81,0l.42,9.72c-1.67-.21-3.45-.36-5.31-.46" style="fill:#fff"/></g></g></svg>